# xmcd CD database file
#
# Track frame offsets:
#	150
#	20187
#	42127
#	51827
#	88067
#	125902
#	148545
#	175612
#	224672
#
# Disc length: 3636 seconds
#
# Revision: 0
# Processed by: cddbd v1.5.1PL2 Copyright (c) Steve Scherf et al.
# Submitted via: CDex 1.51
#
DISCID=870e3209
DTITLE=Pietro Condorelli - EASY
DYEAR=2005
DGENRE=Jazz
TTITLE0=Full House
TTITLE1=Del Sasser
TTITLE2=Search For A New Land
TTITLE3=M.L. Samba
TTITLE4=Finjang
TTITLE5=Y Todavia La Quiero
TTITLE6=Red Apple Jam
TTITLE7=Bedouin
TTITLE8=Ask Me Why
EXTD=YEAR: 2005
EXTT0=
EXTT1=
EXTT2=
EXTT3=
EXTT4=
EXTT5=
EXTT6=
EXTT7=
EXTT8=
PLAYORDER=
